<?xml version="1.0" standalone="no"?>
<!DOCTYPE svg PUBLIC "-//W3C//DTD SVG 20010904//EN"
 "http://www.w3.org/TR/2001/REC-SVG-20010904/DTD/svg10.dtd">
<svg version="1.0" xmlns="http://www.w3.org/2000/svg"
 width="600.000000pt" height="424.000000pt" viewBox="0 0 600.000000 424.000000"
 preserveAspectRatio="xMidYMid meet">

<g transform="translate(0.000000,424.000000) scale(0.100000,-0.100000)"
fill="#000000" stroke="none">
<path d="M113 4137 c-30 -16 -49 -36 -67 -72 l-26 -50 0 -1916 0 -1916 23 -44
c16 -29 40 -54 72 -74 l48 -30 2837 0 2837 0 48 30 c32 20 56 45 72 74 l23 44
0 1915 0 1916 -21 44 c-15 29 -37 54 -67 73 l-46 29 -2845 -1 -2846 0 -42 -22z
m5741 -103 l26 -27 0 -1906 c-1 -1605 -3 -1909 -14 -1924 -13 -16 -15 -12 -20
45 -3 35 -8 142 -11 238 -4 96 -10 227 -14 290 -7 109 -6 117 17 168 29 63 25
122 -8 122 -19 0 -20 8 -20 172 0 163 2 176 26 239 30 77 27 115 -11 129 l-25
10 0 232 c0 244 -7 346 -40 589 -25 182 -30 270 -17 287 7 9 5 18 -7 31 -15
17 -15 22 0 70 18 55 13 77 -11 45 -14 -19 -15 -18 -21 4 -10 35 -27 26 -19
-10 17 -80 8 -295 -16 -373 -5 -16 -17 -100 -28 -185 -16 -131 -18 -197 -14
-427 6 -270 6 -273 -15 -273 -11 0 -23 -8 -26 -17 -10 -26 4 -104 26 -142 18
-33 19 -47 13 -207 -7 -161 -9 -173 -28 -178 -18 -4 -19 -10 -13 -57 4 -28 16
-69 27 -90 17 -35 19 -60 19 -264 l0 -226 -30 21 c-16 11 -46 27 -67 34 l-38
13 -3 77 c-3 69 -5 78 -25 85 -21 8 -23 15 -21 72 1 35 7 77 13 92 6 16 11 39
11 52 0 24 -23 55 -41 55 -5 0 -9 73 -9 173 0 164 1 176 25 225 35 72 33 132
-5 132 -26 0 -32 63 -30 293 2 189 -9 341 -45 588 -18 124 -23 219 -11 237 5
8 4 18 -3 25 -14 14 -15 84 -1 92 12 8 13 55 1 55 -5 0 -11 -7 -15 -15 -7 -19
-26 -19 -26 0 0 8 -4 15 -10 15 -13 0 -13 -47 0 -55 18 -11 3 -271 -21 -350
-4 -16 -17 -100 -27 -185 -17 -131 -19 -198 -15 -427 5 -269 5 -273 -15 -273
-11 0 -23 -7 -26 -16 -9 -23 4 -94 25 -136 20 -39 25 -149 12 -256 -6 -50 -7
-53 -32 -50 -21 2 -27 9 -29 33 -7 84 -12 94 -57 121 -45 26 -54 41 -34 61 5
5 9 30 7 54 -2 34 -8 46 -25 54 -21 9 -22 16 -25 190 -2 99 -2 184 1 189 7 14
3 83 -8 151 -5 33 -15 112 -21 175 -6 63 -18 158 -27 210 -8 52 -12 112 -10
132 3 21 1 41 -4 44 -6 3 -5 12 2 20 9 12 9 20 -1 39 -7 14 -10 35 -6 52 4 15
9 42 12 58 5 29 5 29 -11 10 -14 -17 -17 -18 -25 -5 -5 8 -10 18 -10 23 0 4
-5 7 -11 7 -14 0 -4 -61 12 -71 7 -4 9 -19 5 -35 -3 -16 -8 -77 -11 -136 -2
-58 -11 -133 -19 -165 -8 -32 -20 -101 -26 -153 -6 -51 -14 -121 -19 -155 -4
-33 -5 -91 -2 -130 3 -38 6 -153 6 -255 l0 -185 -41 -3 -41 -3 -7 49 c-8 58
-32 93 -81 116 -28 14 -35 23 -35 46 0 17 -4 30 -10 30 -5 0 -10 -13 -10 -30
0 -16 -5 -30 -10 -30 -6 0 -8 10 -4 24 4 19 -3 30 -41 62 -29 23 -57 59 -72
90 -31 67 -80 124 -140 163 -49 33 -186 81 -229 81 -19 0 -24 5 -24 23 0 13
-8 31 -18 40 -14 13 -19 33 -20 88 0 40 -6 77 -12 83 -15 15 -12 52 5 66 15
13 21 50 7 50 -4 0 -13 -10 -21 -22 l-13 -21 -19 24 -19 24 0 -27 c0 -15 5
-30 10 -33 6 -3 10 -17 10 -30 0 -13 -4 -27 -10 -30 -5 -3 -10 -33 -10 -67 0
-53 -4 -65 -30 -95 -16 -18 -30 -43 -30 -53 0 -15 -7 -20 -26 -20 -37 0 -168
-46 -215 -75 -59 -38 -117 -102 -150 -167 -16 -32 -46 -71 -69 -89 -30 -25
-40 -40 -41 -63 l-1 -31 -9 33 c-12 40 -29 42 -29 3 0 -24 -8 -34 -42 -53 -50
-27 -68 -57 -68 -115 l0 -43 -45 0 -45 0 -1 178 c-1 97 0 182 1 187 16 66 -13
407 -46 534 -8 32 -16 110 -18 175 -3 65 -7 120 -10 123 -3 3 1 15 9 27 16 22
20 66 6 66 -5 0 -12 -10 -15 -22 -6 -22 -7 -23 -21 -4 -21 28 -31 11 -17 -27
15 -42 15 -80 1 -94 -7 -7 -8 -19 -4 -30 11 -25 7 -119 -10 -232 -38 -254 -51
-461 -55 -847 0 -23 -6 -34 -26 -43 -23 -10 -25 -16 -21 -54 2 -23 8 -52 12
-63 5 -18 -1 -27 -37 -51 -39 -26 -44 -34 -53 -88 -9 -54 -13 -60 -36 -63
l-26 -3 -7 134 c-7 126 -6 137 14 170 12 20 24 61 27 91 6 54 5 56 -22 66
l-28 11 6 277 c5 238 3 298 -13 428 -11 83 -22 157 -25 165 -14 38 -30 170
-23 184 5 8 6 20 2 26 -15 24 -14 116 1 145 19 37 19 54 0 54 -8 0 -15 -7 -15
-15 0 -20 -10 -19 -26 3 -12 16 -13 16 -19 0 -4 -9 1 -30 9 -47 18 -34 21 -67
6 -76 -6 -3 -8 -31 -6 -63 3 -31 -2 -106 -10 -167 -40 -293 -65 -543 -55 -550
3 -2 5 -86 3 -188 -3 -183 -3 -186 -25 -189 -32 -4 -35 -69 -6 -134 20 -45 22
-63 20 -219 -3 -156 -4 -171 -23 -183 -17 -12 -19 -22 -14 -66 4 -28 9 -81 12
-118 5 -66 5 -68 -20 -78 -24 -9 -25 -14 -28 -86 l-3 -77 -40 -14 c-21 -7 -49
-22 -60 -33 -12 -11 -23 -20 -26 -20 -2 0 -3 103 -1 229 2 203 4 234 22 273
26 57 27 124 2 137 -17 9 -20 29 -25 175 -6 162 -6 166 19 220 33 73 31 139
-5 144 l-24 4 6 284 c6 245 4 304 -13 431 -10 82 -21 155 -24 163 -13 34 -32
170 -24 178 4 4 2 37 -4 74 -9 57 -8 72 6 101 9 19 16 40 16 46 0 17 -18 13
-29 -6 -10 -17 -12 -17 -25 0 -22 28 -26 0 -7 -50 12 -33 13 -47 3 -65 -6 -13
-10 -45 -7 -73 2 -27 -5 -122 -17 -210 -41 -325 -57 -485 -49 -500 3 -5 5 -92
3 -192 -3 -179 -3 -182 -25 -185 -34 -5 -36 -80 -3 -141 24 -46 24 -50 19
-221 -5 -159 -8 -175 -24 -179 -26 -7 -25 -70 0 -128 18 -42 18 -55 5 -349 -8
-168 -16 -333 -20 -367 l-6 -63 -993 0 c-546 0 -1006 3 -1024 6 -17 4 -42 18
-56 32 l-25 25 0 1413 0 1412 27 6 c16 3 56 10 89 16 154 26 332 107 475 215
238 178 397 453 444 768 l6 37 2333 0 2333 0 27 -26z m-3474 -1570 c24 -119
55 -382 46 -391 -9 -10 -103 -9 -113 0 -3 4 1 96 11 205 20 224 27 284 33 278
2 -2 13 -44 23 -92z m3360 -89 c6 -66 15 -158 19 -205 5 -48 6 -89 1 -94 -13
-13 -97 -13 -110 0 -14 14 9 217 42 378 26 126 30 120 48 -79z m-2967 -75 c21
-101 50 -347 43 -365 -6 -18 -112 -21 -118 -4 -3 10 7 127 33 379 13 123 14
123 42 -10z m2586 -160 c10 -113 17 -208 14 -212 -6 -11 -111 -10 -117 1 -8
12 31 323 49 392 8 31 15 67 16 80 2 53 20 -66 38 -261z m-2214 40 c11 -46 25
-145 48 -353 5 -37 -13 -49 -70 -45 l-48 3 3 65 c4 82 30 352 39 405 7 37 8
38 10 10 2 -16 10 -55 18 -85z m1815 69 c0 -6 9 -107 21 -225 12 -118 18 -221
15 -229 -8 -22 -104 -21 -113 1 -8 21 25 300 43 372 8 29 14 62 14 72 0 11 5
20 10 20 6 0 10 -5 10 -11z m-902 -196 c-5 -64 -3 -70 25 -103 l30 -35 -34 -7
c-37 -8 -109 -1 -109 12 0 4 14 25 31 46 27 34 30 45 28 94 -3 61 7 88 23 72
6 -6 8 -40 6 -79z m-1630 -16 c7 -22 -4 -27 -68 -27 -60 0 -70 2 -70 18 0 14
10 17 68 17 37 0 68 -4 70 -8z m3352 -1 c0 -3 0 -11 0 -16 0 -7 -25 -10 -67
-8 -52 2 -69 7 -71 18 -2 13 9 15 68 14 38 -2 70 -5 70 -8z m-3350 -56 c0 -6
-32 -10 -76 -10 -47 0 -73 4 -69 10 3 6 37 10 76 10 39 0 69 -4 69 -10z m3360
0 c0 -6 -32 -10 -75 -10 -43 0 -75 4 -75 10 0 6 32 10 75 10 43 0 75 -4 75
-10z m-3370 -215 l0 -185 -65 0 -65 0 0 178 c0 98 3 182 7 185 3 4 33 7 65 7
l58 0 0 -185z m3360 0 l0 -186 -60 3 -59 3 -4 183 -5 182 64 0 64 0 0 -185z
m-2962 118 c-2 -13 -17 -17 -70 -20 -63 -3 -68 -2 -68 17 0 18 6 20 71 20 60
0 70 -2 67 -17z m2582 10 c-1 -26 -20 -33 -81 -30 -50 3 -65 8 -67 20 -3 15 7
17 72 17 42 0 76 -3 76 -7z m-1169 -36 c121 -40 211 -113 263 -215 14 -29 37
-59 51 -68 35 -23 31 -30 -12 -27 -50 2 -947 3 -995 0 -21 -2 -38 -1 -38 1 0
2 11 13 24 23 13 10 38 44 55 74 71 126 163 192 316 225 59 13 282 4 336 -13z
m-1413 -26 c2 -7 -21 -11 -72 -11 -67 0 -87 6 -72 21 10 9 141 0 144 -10z
m2582 -2 c0 -11 -137 -12 -144 0 -3 4 -4 10 -2 12 8 8 146 -3 146 -12z m-2593
-209 l-2 -180 -41 -6 c-83 -12 -79 -21 -82 184 l-2 182 64 0 65 0 -2 -180z
m2583 -6 l0 -185 -60 3 -60 3 0 121 c0 67 -3 149 -6 183 l-7 61 67 0 66 0 0
-186z m-2192 134 c-3 -9 -27 -13 -73 -13 -46 0 -70 4 -72 13 -4 9 15 12 72 12
57 0 76 -3 73 -12z m1822 -3 c0 -12 -14 -15 -69 -15 -52 0 -70 4 -75 15 -4 13
7 15 69 15 60 0 75 -3 75 -15z m-1825 -50 c0 -5 -33 -11 -72 -13 -61 -2 -73 0
-73 13 0 13 12 15 73 13 39 -2 72 -7 72 -13z m1825 0 c0 -13 -12 -15 -67 -13
-42 2 -68 8 -71 16 -3 9 15 12 67 12 57 0 71 -3 71 -15z m-1834 -71 c-3 -26
-6 -109 -6 -185 l0 -139 -60 0 -60 0 0 179 0 180 53 4 c28 2 58 4 66 5 11 2
12 -8 7 -44z m1792 36 l42 0 0 -180 0 -180 -65 0 -64 0 -3 178 c-2 97 -1 181
1 185 2 5 13 6 25 3 11 -3 40 -6 64 -6z m-2510 -131 c3 -25 1 -26 -65 -32 -37
-4 -89 -7 -115 -7 -46 0 -48 1 -48 28 0 16 3 32 7 36 4 3 54 5 112 4 106 -3
106 -3 109 -29z m3360 -6 l3 -33 -49 0 c-27 0 -77 3 -111 7 -63 6 -79 18 -67
48 5 13 24 15 113 13 l108 -3 3 -32z m-1228 -22 c0 -25 -4 -25 -67 0 -23 9
-40 10 -60 3 -19 -7 -37 -7 -55 0 -50 18 -76 -28 -39 -68 20 -21 31 -69 18
-73 -4 -2 -16 -3 -27 -3 -17 0 -20 7 -20 48 0 60 -20 93 -44 73 -11 -9 -16
-30 -16 -62 0 -46 -2 -49 -25 -49 -23 0 -25 4 -25 41 0 49 -15 79 -38 79 -30
0 -42 -21 -42 -72 0 -62 -25 -67 -33 -8 -6 47 -22 70 -48 70 -22 0 -32 -31
-27 -86 l3 -39 160 -5 c131 -5 167 -9 200 -25 l40 -20 -119 -3 c-95 -2 -122 0
-136 13 -24 22 -312 22 -330 0 -10 -12 -38 -15 -134 -15 l-121 1 40 22 c35 19
60 22 200 27 l160 5 3 58 c2 45 0 59 -13 63 -24 9 -55 -25 -61 -68 -10 -57
-34 -50 -34 10 0 58 -10 75 -41 70 -22 -3 -24 -9 -27 -60 -3 -57 -4 -58 -32
-58 -30 0 -30 1 -30 55 0 42 -4 57 -16 62 -25 9 -44 -24 -44 -78 0 -42 -3 -47
-25 -51 -22 -5 -25 -2 -25 23 0 16 11 39 25 55 30 32 30 37 8 59 -11 11 -25
15 -42 10 -31 -7 -37 -7 -77 1 -20 4 -43 0 -62 -10 -17 -9 -36 -16 -42 -16
-10 0 -15 32 -6 41 2 2 257 4 565 4 l561 0 0 -24z m-1000 -15 c0 -2 -6 -15
-13 -29 l-13 -25 -34 21 c-29 18 -31 22 -14 28 20 8 74 12 74 5z m90 -6 c13
-8 11 -14 -12 -35 -21 -20 -28 -35 -28 -65 0 -29 -5 -42 -19 -50 -11 -5 -22
-10 -25 -10 -3 0 -6 29 -6 65 0 63 1 66 33 85 37 23 37 23 57 10z m763 -18
c13 -11 17 -31 17 -79 0 -34 -3 -63 -7 -63 -23 1 -43 30 -43 63 0 23 -9 46
-25 65 -18 21 -22 32 -13 35 18 7 50 -2 71 -21z m102 18 c11 -5 15 -9 8 -9 -6
-1 -25 -13 -42 -27 -29 -24 -31 -25 -31 -5 0 11 -4 23 -10 26 -35 21 30 34 75
15z m-2110 -41 c-18 -33 -35 -38 -35 -9 0 11 -5 20 -11 20 -6 0 -13 -9 -16
-20 -7 -26 -19 -26 -26 1 -3 12 -10 18 -17 14 -6 -4 -9 -13 -6 -21 3 -8 1 -14
-4 -14 -6 0 -10 6 -10 14 0 25 -20 28 -29 4 -8 -22 -8 -22 -25 9 -9 18 -16 33
-16 35 0 2 47 2 105 0 l105 -3 -15 -30z m3366 7 c-11 -28 -31 -35 -31 -11 0 8
-4 15 -10 15 -5 0 -10 -9 -10 -20 0 -11 -4 -20 -10 -20 -5 0 -10 6 -10 14 0
24 -21 30 -27 7 -7 -27 -23 -27 -23 -1 0 11 -5 20 -11 20 -6 0 -13 -9 -16 -20
-7 -28 -20 -25 -38 10 l-15 29 102 3 c57 2 104 2 106 2 1 -1 -2 -13 -7 -28z
m-2041 -32 c0 -37 -3 -44 -20 -44 -23 0 -27 31 -10 75 14 37 30 21 30 -31z
m120 6 c0 -43 -3 -50 -20 -50 -16 0 -20 7 -20 38 0 36 14 62 32 62 4 0 8 -22
8 -50z m113 -17 c-4 -25 -10 -33 -25 -33 -18 0 -20 5 -15 36 3 20 12 43 18 51
11 13 14 12 20 -4 3 -10 4 -33 2 -50z m215 14 c3 -42 1 -48 -15 -45 -14 2 -19
14 -21 51 -3 42 -1 48 15 45 14 -2 19 -14 21 -51z m122 -9 c0 -48 -26 -52 -33
-5 -6 39 10 77 24 56 5 -8 9 -31 9 -51z m-834 32 c36 -18 82 -65 72 -75 -4 -4
-258 -11 -258 -7 0 1 6 18 14 36 11 26 24 37 58 49 58 21 65 20 114 -3z m592
8 c5 -7 12 -26 14 -43 2 -24 -1 -30 -17 -30 -16 0 -21 8 -23 43 -3 42 6 53 26
30z m567 1 c50 -13 70 -31 81 -73 6 -27 5 -29 -17 -23 -13 4 -70 7 -126 7
-114 0 -124 7 -75 53 24 23 63 45 85 46 5 1 28 -4 52 -10z m-1827 -35 c16 -5
22 -14 22 -34 l0 -27 -101 -6 c-56 -3 -108 -3 -116 0 -8 3 -13 16 -11 32 3 25
5 26 88 32 47 3 87 6 90 7 3 1 15 -1 28 -4z m2530 -4 l72 0 0 -29 c0 -16 -6
-31 -14 -34 -20 -8 -206 5 -206 14 0 4 -3 14 -6 23 -7 19 30 38 61 31 11 -3
53 -5 93 -5z m-2978 -26 l35 -6 1 -163 0 -163 -45 -5 c-86 -11 -96 -7 -99 38
-2 22 -1 100 3 173 l7 132 32 0 c17 0 47 -3 66 -6z m3396 -166 l-1 -171 -25
-3 c-14 -1 -45 0 -70 3 l-45 5 3 163 3 164 27 4 c15 2 45 5 68 6 l40 1 0 -172z
m-2272 100 c0 -10 -1 -67 -2 -128 l-2 -110 -49 0 c-36 0 -51 4 -55 16 -3 9 -3
65 0 125 8 119 8 119 79 115 22 -1 30 -6 29 -18z m64 -114 c-3 -121 -4 -124
-25 -124 -23 0 -23 2 -23 129 l0 128 25 -5 26 -4 -3 -124z m962 6 c0 -123 -1
-130 -20 -130 -19 0 -20 7 -20 109 0 60 -3 116 -6 124 -4 11 2 17 18 20 13 2
24 5 26 6 1 0 2 -57 2 -129z m118 115 c2 -2 5 -57 6 -122 l1 -118 -52 -3 -53
-3 0 132 0 132 47 -7 c25 -3 48 -8 51 -11z m-1808 -3 c0 -2 -7 -16 -15 -32
-18 -34 -35 -39 -35 -10 0 11 -7 20 -15 20 -8 0 -15 -9 -15 -20 0 -11 -4 -20
-10 -20 -5 0 -10 9 -10 20 0 28 -30 26 -31 -2 l0 -23 -9 23 c-11 25 -30 30
-30 7 0 -23 -16 -18 -28 10 -7 14 -12 27 -12 28 0 1 47 2 105 2 58 0 105 -1
105 -3z m546 -8 c-3 -9 -6 -65 -6 -125 l0 -109 -30 0 -30 0 0 64 c0 34 -3 91
-6 125 l-7 61 43 0 c34 0 41 -3 36 -16z m1354 -109 l0 -125 -35 0 -35 0 0 125
0 125 35 0 35 0 0 -125z m680 121 c0 -3 -4 -16 -10 -30 -10 -28 -30 -35 -30
-11 0 8 -4 15 -10 15 -5 0 -10 -9 -10 -20 0 -11 -4 -20 -10 -20 -5 0 -10 9
-10 20 0 11 -5 20 -11 20 -6 0 -13 -9 -16 -20 -3 -11 -9 -20 -14 -20 -5 0 -9
9 -9 20 0 12 -7 20 -16 20 -11 0 -15 -6 -11 -20 8 -29 -8 -24 -33 10 l-21 29
98 4 c54 1 101 4 106 5 4 1 7 0 7 -2z m-1241 -30 c10 -9 31 -16 47 -16 18 0
34 -7 42 -20 7 -11 23 -20 36 -20 18 0 26 -6 28 -22 2 -15 13 -24 36 -30 25
-7 32 -14 32 -34 0 -19 6 -26 30 -30 21 -5 30 -12 30 -25 0 -11 -4 -19 -9 -19
-13 0 -95 63 -152 116 -86 79 -115 89 -269 89 -159 0 -193 -12 -288 -100 -59
-54 -128 -105 -143 -105 -5 0 -9 9 -9 20 0 14 7 20 24 20 26 0 42 15 48 45 2
13 13 21 31 23 21 3 27 9 27 28 0 20 5 24 31 24 22 0 32 5 36 20 4 16 14 20
44 20 22 0 39 4 39 9 0 18 52 26 171 25 95 -2 124 -5 138 -18z m-1083 -51
c-32 -19 -70 -35 -83 -35 -22 0 -24 3 -18 27 9 38 20 43 94 43 l65 0 -58 -35z
m192 -62 l-3 -98 -180 -2 -180 -2 35 18 c19 11 45 33 58 50 12 17 40 43 62 57
46 30 154 73 188 73 22 1 23 -1 20 -96z m482 88 c0 -6 -14 -11 -32 -13 -25 -2
-34 -9 -38 -28 -3 -14 -15 -26 -28 -30 -13 -3 -28 -16 -35 -30 -24 -48 -42
-31 -45 43 l-3 67 91 0 c49 0 90 -4 90 -9z m690 -62 c0 -61 -2 -70 -17 -67 -9
2 -20 14 -23 27 -4 17 -15 27 -37 33 -22 6 -33 15 -35 31 -2 15 -11 23 -28 25
-14 2 -29 8 -34 13 -6 5 26 9 82 9 l92 0 0 -71z m453 29 c46 -21 82 -47 109
-77 22 -25 54 -54 71 -63 31 -17 27 -17 -148 -15 l-180 2 -3 99 -3 99 43 -7
c24 -4 74 -21 111 -38z m128 32 c11 -6 19 -21 19 -35 0 -33 -36 -34 -83 -2
-19 12 -43 27 -53 34 -16 10 -10 12 39 12 32 1 67 -4 78 -9z m-848 -32 c25
-15 82 -57 127 -95 l80 -68 -37 -7 c-49 -9 -615 -9 -670 0 l-42 7 90 75 c50
41 98 79 107 84 43 25 112 36 203 33 81 -3 104 -8 142 -29z m-1393 -133 c0
-124 -2 -135 -20 -145 -11 -6 -23 -22 -26 -35 -5 -22 -12 -25 -51 -25 l-45 0
3 170 4 170 68 0 67 0 0 -135z m2589 -35 l2 -170 -40 0 c-31 0 -41 4 -46 20
-4 11 -17 28 -31 36 -23 16 -24 20 -24 150 l0 134 68 0 68 0 3 -170z m-1815
-92 c5 -55 3 -83 -6 -98 -19 -29 -28 -25 -28 14 0 48 -8 65 -41 81 -19 10 -35
12 -51 6 -44 -17 -59 -45 -64 -122 -2 -40 -6 -75 -8 -77 -2 -2 -11 19 -21 47
-22 67 -77 117 -139 126 -40 6 -46 10 -46 31 0 34 -28 31 -32 -3 -3 -24 -9
-29 -47 -35 -55 -9 -118 -50 -139 -90 -32 -60 -47 -68 -117 -68 l-65 0 0 62
c0 81 15 98 86 98 49 0 54 2 60 25 3 14 4 38 1 54 l-6 28 328 -1 329 -1 6 -77z
m1568 28 l3 -51 55 -5 c30 -3 61 -9 68 -13 8 -5 12 -33 12 -78 l0 -69 -62 0
c-50 0 -66 4 -85 22 -13 12 -23 27 -23 33 0 14 -57 68 -88 84 -13 7 -42 15
-65 19 -36 7 -42 11 -45 35 -4 33 -27 31 -26 -2 0 -16 -5 -21 -23 -21 -30 0
-91 -25 -117 -48 -10 -9 -31 -44 -47 -77 l-28 -60 0 68 c-1 82 -19 121 -63
136 -46 16 -80 -10 -90 -69 -9 -54 -13 -57 -30 -28 -10 16 -13 46 -10 98 l3
75 329 1 329 0 3 -50z m-1284 28 c160 -7 161 -7 147 -28 -8 -11 -15 -33 -15
-49 0 -22 -4 -28 -17 -25 -10 2 -19 12 -21 23 -8 58 -13 65 -37 65 -27 0 -45
-25 -45 -64 0 -16 -6 -26 -15 -26 -9 0 -15 10 -15 26 0 31 -17 64 -32 64 -22
0 -48 -33 -48 -62 0 -41 -18 -34 -22 8 -4 48 -32 68 -54 39 -8 -11 -13 -28
-10 -37 2 -10 0 -18 -5 -18 -5 0 -9 13 -9 29 0 65 -47 45 -53 -22 -3 -33 -4
-29 -5 19 -1 33 1 64 6 68 4 4 26 5 48 2 23 -3 114 -8 202 -12z m596 -1 c2
-10 1 -36 -4 -58 l-8 -40 -1 37 c0 20 -6 40 -11 43 -17 10 -40 -15 -41 -44 -1
-28 -3 -23 -13 22 -12 54 -66 24 -66 -37 0 -14 -5 -26 -10 -26 -6 0 -10 6 -8
13 4 23 -12 65 -28 71 -23 9 -42 -10 -50 -50 -8 -42 -31 -45 -32 -3 -2 74 -82
82 -82 8 0 -15 -4 -31 -10 -34 -6 -4 -10 7 -10 26 0 18 -7 41 -17 51 -15 17
-13 18 63 19 43 1 120 4 169 8 150 13 153 13 159 -6z m-2011 -9 c13 -4 17 -14
15 -32 -3 -27 -4 -27 -93 -32 -125 -7 -137 -4 -133 28 2 18 10 28 27 32 35 8
163 11 184 4z m3360 -3 c23 -1 24 -58 1 -63 -9 -2 -58 -2 -110 0 -84 3 -94 5
-100 24 -4 15 -1 26 11 35 17 12 33 12 198 4z m-2075 -61 c-2 -8 -10 -15 -18
-15 -17 0 -25 28 -15 53 6 15 8 15 21 -3 8 -11 13 -26 12 -35z m330 1 c-2 -18
-10 -27 -25 -29 -19 -3 -23 1 -23 25 0 16 5 34 12 41 17 17 40 -5 36 -37z
m302 8 c0 -19 -5 -29 -15 -29 -15 0 -22 50 -9 63 12 12 24 -4 24 -34z m-720 1
c0 -16 -4 -30 -8 -30 -5 0 -7 14 -4 30 2 17 6 30 8 30 2 0 4 -13 4 -30z m178
-8 c3 -27 0 -32 -17 -32 -14 0 -21 6 -21 19 0 56 33 67 38 13z m110 6 c-2 -25
-8 -34 -25 -36 -25 -4 -28 4 -13 42 14 39 42 34 38 -6z m232 13 c17 -33 12
-53 -12 -49 -23 3 -34 28 -24 54 8 20 23 18 36 -5z m110 -7 c12 -31 6 -44 -21
-44 -14 0 -19 7 -19 28 0 48 24 58 40 16z m160 -16 c0 -10 -4 -18 -10 -18 -5
0 -10 15 -10 33 0 24 3 28 10 17 5 -8 10 -23 10 -32z m-929 -9 c30 -30 19 -44
-39 -47 -60 -4 -69 13 -26 47 33 26 39 26 65 0z m1132 -11 c27 -32 21 -38 -38
-38 -52 0 -55 1 -55 25 0 46 57 55 93 13z m-2183 -6 c0 -2 -7 -16 -15 -32 -18
-34 -35 -39 -35 -10 0 11 -7 20 -15 20 -8 0 -15 -9 -15 -20 0 -11 -4 -20 -10
-20 -5 0 -10 9 -10 21 0 12 -5 19 -12 17 -7 -3 -13 -10 -13 -15 0 -6 -3 -15
-7 -19 -5 -4 -8 2 -8 14 0 13 -6 22 -15 22 -8 0 -15 -7 -15 -15 0 -21 -16 -19
-24 3 -3 9 -8 22 -11 27 -4 7 30 11 100 10 58 0 105 -1 105 -3z m812 -18 c43
-25 99 -131 77 -145 -19 -12 -390 -11 -409 1 -9 6 -10 10 -3 10 6 0 24 24 40
53 23 42 38 57 83 80 48 25 63 28 117 24 34 -3 77 -13 95 -23z m1731 7 c43
-19 66 -41 112 -113 20 -31 21 -37 8 -42 -23 -9 -387 -7 -401 3 -19 12 29 113
65 136 59 39 147 45 216 16z m817 13 c0 -2 -5 -15 -12 -29 -11 -25 -30 -35
-25 -14 1 6 -4 14 -10 16 -8 3 -13 -4 -13 -16 0 -12 -4 -21 -10 -21 -5 0 -10
9 -10 20 0 11 -7 20 -15 20 -8 0 -15 -9 -15 -20 0 -11 -4 -20 -10 -20 -5 0
-10 9 -10 20 0 11 -7 20 -15 20 -9 0 -15 -9 -15 -22 -1 -22 -1 -22 -25 5 -14
16 -23 31 -21 35 4 7 206 12 206 6z m-2090 -27 c23 -12 70 -71 70 -88 0 -5
-52 -9 -115 -9 -125 0 -130 3 -97 53 37 56 88 72 142 44z m736 -23 c19 -19 34
-44 34 -55 0 -18 -8 -19 -115 -19 l-115 0 13 33 c17 41 70 77 115 77 27 0 42
-8 68 -36z m-540 -5 c-19 -16 -38 -39 -41 -50 -10 -32 -57 -22 -66 15 -4 15
-16 37 -25 47 -17 19 -15 19 75 19 l92 0 -35 -31z m164 11 c22 -11 47 -34 55
-50 15 -29 15 -30 -7 -31 -78 -4 -190 -3 -209 1 -21 5 -21 6 7 39 26 32 74 60
102 61 7 0 31 -9 52 -20z m180 -12 c-11 -18 -20 -41 -20 -50 0 -13 -8 -18 -30
-18 -16 0 -30 4 -30 10 0 5 -16 28 -36 50 l-36 40 86 0 86 0 -20 -32z m-741
-92 c-1 -131 -5 -140 -58 -144 -28 -2 -47 1 -52 9 -4 7 -6 60 -4 119 l4 105
28 5 c15 3 40 4 56 2 l27 -4 -1 -92z m1124 84 c4 -4 6 -56 5 -116 l-3 -109
-41 -3 c-25 -2 -45 2 -51 10 -6 7 -13 60 -15 117 -3 104 -3 105 22 112 26 7
69 1 83 -11z m-1896 -32 l-4 -43 -53 -8 c-60 -8 -70 -2 -70 50 0 36 9 40 83
42 l48 1 -4 -42z m2667 36 c17 -7 23 -78 7 -88 -4 -3 -31 -3 -60 1 l-51 6 0
43 0 44 44 0 c24 0 51 -3 60 -6z m-3002 -371 c-1 -192 -5 -354 -7 -360 -5 -16
-151 -18 -160 -3 -6 10 8 437 21 628 l6 82 71 0 72 0 -3 -347z m3372 295 c10
-90 28 -649 21 -656 -4 -4 -40 -7 -82 -7 l-75 0 -4 340 c-3 187 -7 348 -10
358 -5 15 3 17 69 17 l75 0 6 -52z m-1272 -23 c4 -5 8 -27 8 -47 0 -34 -3 -38
-25 -38 -20 0 -25 5 -25 24 0 54 -58 58 -70 5 -8 -31 -50 -40 -50 -10 0 11
-10 27 -22 36 -22 15 -24 14 -40 -6 -10 -12 -18 -27 -18 -35 0 -10 -12 -14
-39 -14 -33 0 -40 4 -45 25 -13 52 -71 54 -78 2 -5 -34 -32 -32 -45 3 -16 43
-60 43 -76 0 -14 -36 -34 -39 -43 -5 -3 13 -12 29 -19 35 -19 16 -53 -4 -57
-32 -2 -19 -10 -24 -45 -26 -37 -3 -43 0 -43 17 0 11 -7 27 -16 35 -20 21 -51
5 -60 -29 -9 -36 -41 -33 -49 5 -12 55 -75 45 -75 -12 0 -12 -7 -18 -22 -18
-21 0 -23 4 -20 47 l4 48 481 0 c310 0 485 -4 489 -10z m-1614 -62 c3 -40 1
-43 -22 -43 -14 0 -53 -6 -88 -14 -35 -8 -79 -17 -99 -20 l-36 -6 -6 52 c-9
76 -5 79 132 76 l116 -3 3 -42z m479 -15 c-2 -13 -4 -3 -4 22 0 25 2 35 4 23
2 -13 2 -33 0 -45z m1309 16 c0 -18 -3 -34 -8 -34 -4 0 -8 19 -8 42 0 49 14
43 16 -8z m722 -22 l3 -62 -43 6 c-24 3 -71 12 -106 20 -35 8 -74 14 -88 14
-21 0 -24 4 -24 38 0 21 3 42 7 46 4 3 61 5 127 4 l121 -3 3 -63z m-2068 3 c0
-33 -4 -45 -15 -45 -10 0 -15 10 -15 29 0 21 -6 32 -21 36 -22 7 -59 -18 -59
-42 0 -23 -28 -14 -34 11 -12 47 -76 41 -76 -6 0 -31 -52 -20 -60 12 -9 39
-46 39 -68 0 -13 -23 -23 -30 -42 -28 -21 3 -25 9 -28 41 l-3 37 210 0 211 0
0 -45z m300 20 c0 -18 -5 -25 -20 -25 -15 0 -20 7 -20 25 0 18 5 25 20 25 15
0 20 -7 20 -25z m118 -3 c3 -17 -2 -22 -17 -22 -22 0 -25 8 -15 35 9 22 28 14
32 -13z m170 0 c3 -18 -1 -22 -22 -22 -27 0 -31 7 -20 35 9 23 38 14 42 -13z
m118 -11 c-10 -15 -46 -14 -46 2 0 7 5 18 12 25 10 10 15 9 26 -2 8 -8 11 -19
8 -25z m122 11 c3 -17 -2 -22 -17 -22 -16 0 -21 6 -21 26 0 33 33 30 38 -4z
m160 0 c3 -17 -2 -22 -17 -22 -14 0 -21 6 -21 18 0 38 33 41 38 4z m126 12
c10 -26 7 -34 -13 -34 -23 0 -35 15 -27 35 7 20 32 19 40 -1z m674 -21 c-3
-32 -7 -38 -28 -41 -20 -2 -28 3 -37 28 -10 26 -16 31 -40 28 -22 -2 -29 -9
-31 -30 -5 -41 -46 -39 -61 3 -13 39 -50 37 -69 -3 -16 -34 -30 -35 -42 -4
-18 49 -80 41 -80 -10 0 -15 -6 -24 -15 -24 -11 0 -15 12 -15 45 l0 45 211 0
210 0 -3 -37z m-2084 -9 c10 -27 7 -34 -19 -34 -27 0 -33 18 -13 38 16 16 25
15 32 -4z m2000 0 c23 -22 20 -34 -9 -34 -18 0 -25 5 -25 18 0 16 8 32 16 32
1 0 10 -7 18 -16z m-1874 2 c0 -2 3 -11 6 -20 5 -12 0 -16 -19 -16 -20 0 -24
4 -20 20 4 16 33 30 33 16z m120 -21 c0 -20 -5 -25 -25 -25 -27 0 -33 18 -13
38 20 20 38 14 38 -13z m1508 13 c20 -20 14 -40 -10 -36 -15 2 -24 11 -26 26
-4 24 16 30 36 10z m120 -11 c2 -12 -3 -17 -17 -17 -15 0 -21 6 -21 21 0 25
33 22 38 -4z m-388 -32 c7 -18 18 -25 37 -27 54 -2 88 4 99 18 10 12 15 12 36
1 19 -9 49 -11 114 -6 124 11 391 11 439 1 32 -6 10 -10 -105 -15 -366 -19
-571 -25 -723 -20 -154 6 -164 7 -173 27 -8 19 -20 22 -99 26 -49 3 -148 3
-218 1 -122 -3 -129 -4 -139 -26 -9 -21 -16 -22 -171 -28 -149 -5 -352 0 -727
19 l-145 8 65 11 c57 9 224 7 483 -7 33 -2 51 2 57 12 7 12 11 12 27 -2 18
-17 46 -22 96 -20 19 2 31 10 39 27 l11 25 494 0 493 0 10 -25z m-292 -47 l11
-31 283 7 c156 3 426 9 601 12 l317 7 0 -57 c0 -49 -2 -56 -20 -56 -13 0 -20
7 -20 20 0 25 -20 26 -27 1 -3 -11 -20 -23 -43 -30 -25 -7 -55 -29 -84 -62
-25 -28 -46 -47 -46 -41 0 18 -51 72 -84 89 -17 9 -44 19 -61 23 -21 4 -31 12
-33 28 -5 30 -22 28 -22 -3 0 -20 -5 -25 -25 -25 -41 0 -90 -25 -118 -61 l-26
-34 -38 36 c-44 42 -73 59 -102 59 -12 0 -21 8 -23 20 -2 12 -7 21 -13 21 -5
0 -11 -9 -13 -21 -2 -13 -11 -20 -25 -20 -29 0 -77 -30 -107 -66 l-24 -29 -34
37 c-20 22 -55 45 -85 56 -37 14 -53 26 -55 41 -5 29 -22 26 -22 -4 0 -21 -5
-25 -29 -25 -15 0 -45 -11 -65 -25 -43 -29 -46 -30 -46 -11 0 27 -50 75 -85
82 -26 5 -34 12 -39 35 -8 39 -26 37 -26 -4 0 -29 -5 -35 -35 -46 -31 -11 -68
-46 -77 -72 -2 -6 -23 1 -48 15 -25 14 -55 26 -67 26 -14 0 -23 7 -25 20 -4
28 -22 30 -26 4 -2 -15 -15 -23 -48 -32 -29 -8 -59 -27 -88 -55 l-43 -43 -20
31 c-22 33 -77 65 -112 65 -16 0 -21 6 -21 25 0 31 -17 33 -22 3 -2 -16 -12
-24 -35 -29 -35 -7 -97 -49 -115 -78 -10 -16 -15 -14 -52 25 -32 33 -52 45
-84 50 -33 5 -44 12 -48 30 -8 32 -24 31 -24 -1 0 -19 -5 -25 -22 -25 -42 -1
-106 -38 -136 -79 l-30 -41 -22 34 c-23 38 -68 70 -112 81 -18 5 -28 14 -28
26 0 25 -16 24 -23 -1 -3 -12 -14 -20 -26 -20 -19 0 -21 6 -21 56 l0 57 323
-7 c177 -3 448 -9 603 -12 l281 -7 10 30 11 29 199 2 199 1 12 -31z m-149 -92
c25 -14 70 -90 59 -101 -3 -3 -21 2 -41 10 -48 20 -76 19 -142 -4 -63 -22 -69
-15 -32 40 23 35 78 69 110 69 10 0 30 -6 46 -14z m-258 -61 c33 -18 59 -57
66 -101 5 -31 4 -34 -21 -34 -19 0 -26 5 -26 19 0 30 -19 35 -26 6 l-6 -25
-132 0 c-141 0 -219 15 -224 44 -5 22 -22 21 -22 -2 0 -41 -226 -64 -332 -33
-48 13 -58 20 -58 39 0 12 -4 22 -10 22 -5 0 -10 -11 -10 -25 0 -20 -7 -26
-41 -35 -23 -6 -60 -29 -85 -52 -27 -25 -44 -35 -44 -26 0 9 -3 35 -6 60 -6
42 -4 48 32 88 46 51 87 70 150 70 67 0 108 -24 145 -84 29 -46 33 -49 43 -32
29 50 80 96 118 107 80 21 150 -8 182 -76 9 -19 22 -35 29 -35 7 1 24 18 39
40 57 83 153 109 239 65z m561 -1 c15 -8 44 -34 65 -59 20 -25 41 -45 45 -45
4 0 17 18 28 41 55 107 230 98 284 -15 20 -42 27 -40 62 15 34 54 77 79 139
79 71 0 132 -33 167 -90 26 -43 27 -47 15 -95 l-13 -50 -18 28 c-10 15 -46 40
-82 58 -46 22 -64 35 -64 50 0 10 -4 19 -10 19 -5 0 -10 -10 -10 -23 0 -34
-69 -51 -200 -49 -112 2 -183 19 -188 46 -5 22 -22 20 -22 -2 0 -27 -85 -42
-232 -42 -120 0 -127 1 -130 20 -2 12 -7 21 -13 21 -5 0 -11 -9 -13 -21 -2
-14 -11 -20 -28 -20 -28 0 -30 16 -10 63 36 86 137 117 228 71z m-1636 -34
c39 -39 52 -58 65 -102 8 -28 6 -27 -32 15 -24 28 -57 52 -84 62 -24 10 -47
26 -50 36 -8 24 -25 25 -25 1 0 -13 -12 -22 -37 -30 -57 -18 -99 -47 -133 -93
l-30 -42 0 38 c0 50 35 96 92 119 23 10 50 22 58 27 8 5 43 8 77 6 56 -3 67
-7 99 -37z m2737 23 c28 -10 68 -34 89 -54 33 -31 38 -42 38 -80 l0 -44 -19
31 c-27 45 -87 90 -137 104 -32 9 -44 18 -44 31 0 11 -4 19 -10 19 -5 0 -10
-8 -10 -18 0 -13 -12 -22 -39 -30 -47 -15 -87 -45 -112 -86 -26 -42 -26 -8 0
42 49 96 130 124 244 85z m-1396 -45 c31 -11 33 -14 27 -48 -3 -19 -13 -39
-22 -45 -9 -5 -31 -24 -48 -42 l-32 -32 -16 24 c-9 14 -30 32 -46 40 -25 13
-30 21 -30 53 0 34 3 39 33 49 45 15 95 15 134 1z m-1366 -43 c35 -23 70 -80
83 -135 6 -24 5 -24 -7 2 -22 47 -60 78 -114 94 -40 12 -53 20 -53 35 0 26
-18 24 -22 -3 -2 -16 -12 -24 -33 -28 -38 -8 -73 -26 -102 -53 -30 -27 -29
-16 2 31 58 87 162 112 246 57z m2765 9 c33 -16 94 -84 94 -106 0 -5 -17 5
-38 21 -20 17 -52 34 -70 37 -22 5 -37 15 -43 30 -10 29 -29 32 -29 4 0 -14
-11 -22 -42 -30 -54 -15 -87 -37 -109 -75 -22 -36 -25 -21 -5 26 28 67 113
123 173 115 18 -3 48 -12 69 -22z m-1944 -76 c36 -20 87 -92 75 -104 -2 -3
-79 -3 -170 -2 l-165 3 21 45 c42 87 143 111 239 58z m1113 13 c46 -21 59 -34
80 -84 l15 -37 -169 0 -170 0 10 29 c14 41 60 80 110 96 59 18 77 18 124 -4z
m-1548 -7 c36 -18 83 -77 83 -106 0 -17 -14 -18 -165 -18 -91 0 -165 4 -165 8
0 5 13 28 30 50 54 74 142 101 217 66z m1950 5 c44 -16 113 -92 113 -124 0 -3
-74 -5 -165 -5 -182 0 -183 0 -142 61 47 69 121 96 194 68z m-2342 -23 c27
-18 65 -72 65 -93 0 -10 -41 -13 -170 -13 -93 0 -170 4 -170 9 0 23 50 79 89
98 53 27 144 26 186 -1z m575 -22 c-10 -21 -21 -47 -24 -56 -9 -30 -32 -20
-51 22 -10 22 -25 46 -33 53 -13 10 -3 13 54 17 38 3 70 5 72 4 1 0 -7 -18
-18 -40z m1563 33 c4 -1 -4 -19 -18 -39 -14 -20 -25 -44 -25 -52 0 -9 -9 -16
-20 -16 -14 0 -22 10 -30 39 -5 21 -17 44 -25 51 -8 7 -15 16 -15 19 0 6 106
4 133 -2z m642 -4 c40 -20 74 -52 91 -85 l15 -28 -176 0 -176 0 7 23 c12 38
46 79 77 92 41 17 125 16 162 -2z m-1798 -13 c-14 -11 -29 -29 -32 -40 -8 -25
-17 -20 -44 25 l-20 35 61 0 61 0 -26 -20z m230 0 c31 -19 70 -66 61 -75 -2
-3 -75 -8 -162 -11 -154 -7 -158 -7 -148 12 15 28 63 71 92 83 43 17 122 13
157 -9z m366 -10 c19 -13 43 -37 52 -52 l16 -28 -88 1 c-48 1 -121 4 -160 8
l-73 6 20 33 c27 45 72 63 142 59 39 -2 67 -10 91 -27z m137 25 c0 -2 -10 -19
-23 -38 l-23 -34 -33 38 -32 39 55 0 c31 0 56 -2 56 -5z m-180 -134 c27 -5
-62 -8 -230 -8 -151 0 -257 3 -235 7 55 10 410 10 465 1z"/>
<path d="M1595 3374 c-70 -32 -70 -32 -78 -11 -4 12 -13 25 -20 29 -15 10
-248 10 -263 0 -27 -18 -34 -56 -34 -191 l0 -141 235 0 235 0 0 65 0 65 -75 0
c-41 0 -75 4 -75 8 0 5 30 22 68 37 37 15 71 31 75 35 4 4 7 36 5 72 l-3 64
-70 -32z m-155 -144 l0 -40 -80 0 -80 0 0 33 c0 19 3 37 7 40 3 4 39 7 80 7
l73 0 0 -40z"/>
<path d="M1470 2881 c-102 -27 -204 -53 -228 -60 l-43 -12 3 -71 3 -72 205
-51 c113 -28 218 -55 233 -59 l28 -7 -3 68 c-3 62 -5 68 -28 73 -22 5 -25 11
-25 50 0 39 3 45 25 50 23 5 25 11 28 73 2 37 -1 67 -5 66 -4 0 -91 -22 -193
-48z m70 -142 c0 -27 -3 -30 -22 -26 -13 3 -44 9 -70 12 -27 4 -48 11 -48 15
0 6 76 23 128 29 7 0 12 -11 12 -30z"/>
<path d="M470 2510 c-18 -18 -20 -33 -20 -170 l0 -150 235 0 235 0 0 65 0 65
-65 0 -65 0 0 85 c0 123 -3 125 -170 125 -117 0 -132 -2 -150 -20z m248 -152
l3 -38 -95 0 -96 0 0 33 c0 19 3 37 7 41 4 4 46 5 93 4 l85 -3 3 -37z"/>
<path d="M1200 2350 l0 -70 100 0 100 0 0 -35 0 -35 -100 0 -100 0 0 -65 0
-65 235 0 235 0 0 65 0 65 -95 0 -95 0 0 35 0 35 95 0 95 0 0 70 0 70 -235 0
-235 0 0 -70z"/>
<path d="M675 2031 c-17 -7 -21 -20 -25 -82 l-5 -74 -52 -3 -53 -3 0 80 c0 45
-3 81 -7 81 -5 0 -25 -5 -45 -11 l-38 -10 0 -112 c0 -157 0 -157 139 -157 70
0 111 4 119 12 7 7 12 40 12 80 l0 68 55 0 55 0 0 -75 c0 -41 3 -75 8 -75 4 0
24 5 45 11 l37 10 0 108 c0 149 -5 155 -132 158 -51 2 -102 -1 -113 -6z"/>
<path d="M1200 1806 l0 -144 28 -6 c15 -4 35 -9 45 -12 15 -5 17 2 17 60 0 36
4 66 9 66 7 0 233 -87 359 -137 9 -4 12 27 12 135 l0 141 -37 10 c-21 6 -41
11 -45 11 -5 0 -8 -27 -8 -61 0 -54 -2 -60 -17 -54 -46 18 -264 99 -310 116
l-53 18 0 -143z"/>
<path d="M450 1521 l0 -68 88 -33 c48 -18 90 -35 94 -39 4 -3 -35 -21 -87 -40
l-95 -33 0 -69 0 -69 235 0 235 0 0 65 0 64 -102 3 -102 3 85 37 84 37 -85 40
-85 40 103 0 102 1 0 65 0 65 -235 0 -235 0 0 -69z"/>
<path d="M1470 1501 c-102 -27 -204 -53 -228 -60 l-43 -12 3 -71 3 -72 205
-51 c113 -28 218 -55 233 -59 l28 -7 -3 68 c-3 62 -5 68 -28 73 -22 5 -25 11
-25 50 0 39 3 45 25 50 23 5 25 11 28 73 2 37 -1 67 -5 66 -4 0 -91 -22 -193
-48z m70 -142 c0 -27 -3 -30 -22 -26 -13 3 -44 9 -70 12 -27 4 -48 11 -48 15
0 6 76 23 128 29 7 0 12 -11 12 -30z"/>
<path d="M1580 979 l0 -69 -190 0 -190 0 0 -65 0 -65 235 0 235 0 0 123 0 124
-45 10 -45 10 0 -68z"/>
<path d="M1470 601 c-102 -27 -204 -53 -228 -60 l-43 -12 3 -71 3 -72 205 -51
c113 -28 218 -55 233 -59 l28 -7 -3 68 c-3 62 -5 68 -28 73 -22 5 -25 11 -25
50 0 39 3 45 25 50 23 5 25 11 28 73 2 37 -1 67 -5 66 -4 0 -91 -22 -193 -48z
m70 -142 c0 -27 -3 -30 -22 -26 -13 3 -44 9 -70 12 -27 4 -48 11 -48 15 0 6
76 23 128 29 7 0 12 -11 12 -30z"/>
</g>
</svg>
