<?xml version="1.0" encoding="UTF-8"?>
<svg version="1.1" xmlns="http://www.w3.org/2000/svg" width="3840" height="2160">
<path d="M0 0 C128.37 0 256.74 0 389 0 C389.020625 63.999375 389.04125 127.99875 389.0625 193.9375 C389.071604 214.18472412 389.08070801 234.43194824 389.09008789 255.29272461 C389.09460449 279.91711426 389.09460449 279.91711426 389.09544373 291.42555237 C389.09637965 299.50551135 389.10006207 307.58546349 389.10557556 315.66542053 C389.11191652 324.9716841 389.11484169 334.27794105 389.11344495 343.58420679 C389.11283946 348.35028923 389.11383554 353.11635687 389.11921513 357.88243663 C389.12404083 362.18367743 389.12435015 366.48489282 389.12090111 370.78613472 C389.12047353 372.34915311 389.12177186 373.91217302 389.12488258 375.47518837 C389.12884612 377.58929483 389.12676329 379.70330763 389.12304783 381.81741238 C389.12342755 382.99568456 389.12380727 384.17395675 389.1241985 385.38793415 C389 388 389 388 388 389 C385.94105547 389.09789869 383.87868293 389.12371211 381.81741238 389.12304783 C381.16092924 389.12420157 380.50444611 389.12535532 379.82806954 389.12654402 C377.60194331 389.12921581 375.37588765 389.12468495 373.14976501 389.12025452 C371.5523629 389.1206915 369.95496086 389.1215676 368.3575592 389.12284851 C363.93783286 389.12510379 359.51813049 389.12106138 355.09840719 389.11607273 C350.27046968 389.11172566 345.44253339 389.11316604 340.61459446 389.11389065 C331.23022835 389.1144237 321.84587176 389.10979289 312.4615081 389.10338932 C301.61337586 389.09620757 290.7652494 389.09539557 279.91711426 389.09460449 C251.25724132 389.0893477 222.59737052 389.07538668 193.9375 389.0625 C129.938125 389.041875 65.93875 389.02125 0 389 C0 260.63 0 132.26 0 0 Z " fill="#5ABA00" transform="translate(438,671)"/>
<path d="M0 0 C63.999375 -0.020625 127.99875 -0.04125 193.9375 -0.0625 C214.18472412 -0.071604 234.43194824 -0.08070801 255.29272461 -0.09008789 C279.91711426 -0.09460449 279.91711426 -0.09460449 291.42555237 -0.09544373 C299.50551135 -0.09637965 307.58546349 -0.10006207 315.66542053 -0.10557556 C324.9716841 -0.11191652 334.27794105 -0.11484169 343.58420679 -0.11344495 C348.35028923 -0.11283946 353.11635687 -0.11383554 357.88243663 -0.11921513 C362.18367743 -0.12404083 366.48489282 -0.12435015 370.78613472 -0.12090111 C372.34915311 -0.12047353 373.91217302 -0.12177186 375.47518837 -0.12488258 C377.58929483 -0.12884612 379.70330763 -0.12676329 381.81741238 -0.12304783 C383.58482065 -0.12361741 383.58482065 -0.12361741 385.38793415 -0.1241985 C388 0 388 0 389 1 C389.0987958 3.05277773 389.1255571 5.10902319 389.12584114 7.16417694 C389.12729458 7.8184318 389.12874802 8.47268667 389.13024551 9.14676744 C389.13393098 11.36638161 389.13040739 13.58592819 389.12698364 15.80554199 C389.12813446 17.40199046 389.12972171 18.99843866 389.13171089 20.5948863 C389.13590966 25.00311252 389.13381106 29.41131727 389.13072467 33.8195436 C389.128473 38.5653306 389.13194901 43.31111377 389.13470459 48.05690002 C389.1391638 57.36231048 389.13818515 66.66771289 389.13529195 75.97312367 C389.1330385 83.53220824 389.13272514 91.09129055 389.13381577 98.65037537 C389.133969 99.72401595 389.13412223 100.79765654 389.13428011 101.90383169 C389.13459982 104.08454343 389.13492403 106.26525516 389.1352527 108.4459669 C389.13810793 128.92045069 389.13481979 149.39493002 389.12945233 169.86941308 C389.12498426 187.45802893 389.12576018 205.04663818 389.13037109 222.63525391 C389.13571609 243.03377977 389.13783324 263.43230172 389.13475883 283.83082819 C389.13444026 286.00376034 389.13412589 288.17669249 389.13381577 290.34962463 C389.13366149 291.41889961 389.13350721 292.48817458 389.13334826 293.58985183 C389.13248288 301.14457319 389.13394643 308.69929208 389.13629532 316.25401306 C389.1390927 325.45391889 389.13835638 334.65381618 389.13301457 343.85372102 C389.13037671 348.55247491 389.12937392 353.25121454 389.13266373 357.94996834 C389.13562496 362.24420552 389.1340368 366.53841511 389.12868617 370.83264977 C389.12756124 372.39319235 389.12815483 373.95373722 389.13056196 375.51427835 C389.13356513 377.62149395 389.13052235 379.72861269 389.12584114 381.83582306 C389.12567879 383.01051541 389.12551644 384.18520776 389.12534916 385.39549685 C389 388 389 388 388 389 C385.94105547 389.09789869 383.87868293 389.12371211 381.81741238 389.12304783 C381.16092924 389.12420157 380.50444611 389.12535532 379.82806954 389.12654402 C377.60194331 389.12921581 375.37588765 389.12468495 373.14976501 389.12025452 C371.5523629 389.1206915 369.95496086 389.1215676 368.3575592 389.12284851 C363.93783286 389.12510379 359.51813049 389.12106138 355.09840719 389.11607273 C350.27046968 389.11172566 345.44253339 389.11316604 340.61459446 389.11389065 C331.23022835 389.1144237 321.84587176 389.10979289 312.4615081 389.10338932 C301.61337586 389.09620757 290.7652494 389.09539557 279.91711426 389.09460449 C251.25724132 389.0893477 222.59737052 389.07538668 193.9375 389.0625 C129.938125 389.041875 65.93875 389.02125 0 389 C0 260.63 0 132.26 0 0 Z " fill="#FEB900" transform="translate(438,1100)"/>
<path d="M0 0 C128.04 0 256.08 0 388 0 C388 128.37 388 256.74 388 389 C259.96 389 131.92 389 0 389 C0 260.63 0 132.26 0 0 Z " fill="#00A4F1" transform="translate(10,1100)"/>
<path d="M0 0 C128.04 0 256.08 0 388 0 C388 128.37 388 256.74 388 389 C259.96 389 131.92 389 0 389 C0 260.63 0 132.26 0 0 Z " fill="#FE4F18" transform="translate(10,671)"/>
<path d="M0 0 C39.6 0 79.2 0 120 0 C125.60936814 12.34060992 125.60936814 12.34060992 127.26953125 16.74609375 C127.86882446 18.31931396 127.86882446 18.31931396 128.48022461 19.92431641 C128.91987549 21.08366699 129.35952637 22.24301758 129.8125 23.4375 C135.53730636 38.39350666 141.47759558 53.26142619 147.4375 68.125 C149.54498339 73.38252703 151.65167511 78.64037113 153.7578125 83.8984375 C154.03752144 84.59671221 154.31723038 85.29498692 154.60541534 86.01442146 C162.70834965 106.24609825 170.75880011 126.49868743 178.8125 146.75 C179.60018815 148.73058107 180.38787736 150.71116172 181.17556763 152.69174194 C184.36686711 160.71614538 187.55798452 168.74062119 190.74873352 176.76524353 C195.97665038 189.91314694 201.20663378 203.06022647 206.43810844 216.20671463 C208.78904624 222.11467902 211.13968101 228.02276398 213.49031544 233.93084908 C215.3351632 238.56763768 217.18015594 243.20436847 219.02554321 247.84094238 C223.35890044 258.72894043 227.6883797 269.61846843 232.0116806 280.51046371 C233.02549635 283.06422426 234.03986734 285.61776384 235.05426025 288.17129517 C236.75693129 292.45839726 238.45682476 296.74659225 240.15488052 301.03552437 C240.78629861 302.62939876 241.41846917 304.22297534 242.05150986 305.81620598 C264 361.06954962 264 361.06954962 264 372 C264.66 372 265.32 372 266 372 C266.24733887 370.75750488 266.49467773 369.51500977 266.74951172 368.23486328 C268.04958208 362.40619322 270.003018 356.86047279 272.0078125 351.2421875 C272.40524658 350.11803436 272.80268066 348.99388123 273.2121582 347.83566284 C274.50892726 344.17938293 275.81569794 340.52680944 277.125 336.875 C277.57831129 335.60715273 278.03157844 334.33928968 278.48480225 333.07141113 C285.47395119 313.54321834 292.923529 294.2586781 300.99273682 275.15107727 C304.64609242 266.49683633 308.19056553 257.79857547 311.7376709 249.10037231 C313.63440254 244.4510183 315.53626213 239.80376266 317.4375 235.15625 C318.20053721 233.29037128 318.96355806 231.42448587 319.7265625 229.55859375 C321.96269187 224.09079797 324.19997646 218.62347538 326.4375 213.15625 C334.30106193 193.94132761 342.15615165 174.72297888 350 155.5 C356.36832469 139.89309818 362.74185135 124.2883451 369.125 108.6875 C369.49237274 107.78952698 369.85974548 106.89155396 370.23825073 105.96636963 C373.95396957 96.884091 377.67082383 87.80227983 381.39138794 78.72198486 C382.52792684 75.94779547 383.66389373 73.17337234 384.79980469 70.39892578 C386.29418453 66.74918731 387.79122359 63.10055566 389.29003906 59.45263672 C392.76869794 50.97532267 396.21606928 42.48799849 399.57572937 33.96270752 C401.12890459 30.02173161 402.69220787 26.0848011 404.25534058 22.14776611 C404.99716429 20.26927737 405.73334713 18.38855046 406.46365356 16.5055542 C407.4700581 13.91089342 408.49469717 11.32415034 409.5234375 8.73828125 C409.81744949 7.96455673 410.11146149 7.19083221 410.41438293 6.3936615 C411.27099609 4.27075195 411.27099609 4.27075195 413 1 C415.87991891 -0.10655493 418.66517069 -0.12557781 421.72624207 -0.12698364 C422.67268082 -0.12980347 423.61911957 -0.13262329 424.59423828 -0.13552856 C426.14123413 -0.13249222 426.14123413 -0.13249222 427.71948242 -0.12939453 C428.81086014 -0.13114685 429.90223785 -0.13289917 431.02668762 -0.13470459 C434.63629747 -0.13910829 438.2458584 -0.1361909 441.85546875 -0.1328125 C444.35842396 -0.13348582 446.86137912 -0.13445608 449.36433411 -0.13571167 C454.60902406 -0.13718651 459.85370124 -0.13513551 465.09838867 -0.13037109 C471.16850955 -0.12492064 477.23859688 -0.12669822 483.30871695 -0.1321975 C489.14464592 -0.13727355 494.98056208 -0.13674774 500.81649208 -0.13381577 C503.30252398 -0.13314646 505.78855673 -0.13397504 508.27458763 -0.13629532 C511.73931563 -0.13881988 515.20397808 -0.13498443 518.66870117 -0.12939453 C520.22480606 -0.13243088 520.22480606 -0.13243088 521.81234741 -0.13552856 C522.75032669 -0.13270874 523.68830597 -0.12988892 524.65470886 -0.12698364 C525.47451831 -0.12660662 526.29432775 -0.12622959 527.13897991 -0.12584114 C529 0 529 0 530 1 C530.09980115 3.5943934 530.13361376 6.16221548 530.12584114 8.75714874 C530.12729458 9.58361772 530.12874802 10.4100867 530.13024551 11.2616002 C530.13393261 14.06703685 530.13040663 16.87242008 530.12698364 19.67785645 C530.12813439 21.69503447 530.1297216 23.71221229 530.13171089 25.72938967 C530.13591055 31.30057493 530.13381066 36.87174321 530.13072467 42.44292855 C530.12847336 48.44026067 530.13194883 54.43758974 530.13470459 60.43492126 C530.13890604 71.51407727 530.13852534 82.59322857 530.13579312 93.6723846 C530.13328171 103.90590368 530.13261892 114.13942075 530.13381577 124.37294006 C530.13393034 125.38950463 530.13393034 125.38950463 530.13404724 126.42660585 C530.13435855 129.17736053 530.13467695 131.92811521 530.135007 134.67886989 C530.13806888 160.50514102 530.13528797 186.33140867 530.1299101 212.15767927 C530.12516418 235.12383882 530.12558879 258.08999284 530.13037109 281.05615234 C530.13572087 306.83392468 530.13785177 332.61169395 530.13475883 358.38946676 C530.13443809 361.13533115 530.13412525 363.88119554 530.13381577 366.62705994 C530.13373669 367.3032066 530.13365761 367.97935326 530.13357614 368.67598921 C530.13243665 378.90533663 530.13377267 389.13468182 530.13629532 399.36402893 C530.1391481 410.99036782 530.13835685 422.61670143 530.13301457 434.24303973 C530.13037641 440.18125571 530.12937442 446.1194604 530.13266373 452.05767632 C530.13562435 457.48437021 530.13403783 462.91104227 530.12868617 468.33773416 C530.12756098 470.31011796 530.1281554 472.28250356 530.13056196 474.25488621 C530.13356375 476.91756818 530.13052377 479.58017343 530.12584114 482.24285126 C530.12818231 483.02446332 530.13052347 483.80607538 530.13293558 484.61137265 C530.11415034 489.88584966 530.11415034 489.88584966 529 491 C526.35261911 491.09511266 523.73140999 491.12555635 521.08374023 491.11352539 C520.25454071 491.11367142 519.42534119 491.11381744 518.5710144 491.1139679 C515.81684802 491.11326851 513.06274839 491.10547493 510.30859375 491.09765625 C508.40430234 491.09579216 506.50001045 491.09436822 504.59571838 491.09336853 C499.57332037 491.08954263 494.55095108 491.07971173 489.52856445 491.06866455 C484.4077188 491.05845198 479.28686852 491.05387124 474.16601562 491.04882812 C464.11066443 491.03808953 454.0553346 491.02101224 444 491 C443.95390149 452.29961985 443.91881997 413.59924393 443.89786934 374.89884173 C443.89536888 370.29681892 443.89278014 365.69479617 443.89013672 361.09277344 C443.88934979 359.71889879 443.88934979 359.71889879 443.88854696 358.3172691 C443.87991955 343.61976055 443.8641935 328.92226816 443.84569441 314.2247691 C443.82677907 299.06652301 443.81583845 283.90828518 443.81182301 268.75002778 C443.80936011 260.26845499 443.80354703 251.78691574 443.78853989 243.30535507 C443.72600232 206.89549858 443.99051507 170.58622993 445.63850343 134.2049402 C446.04688342 125.18064803 446.34895938 116.15417467 446.625 107.125 C446.66597368 105.81616411 446.70694736 104.50732822 446.74916267 103.15883064 C446.83416939 100.43926024 446.91786938 97.71965851 447 95 C446.80144409 96.04559082 446.80144409 96.04559082 446.59887695 97.11230469 C441.303523 123.64624141 430.9690591 147.99163371 420.55908203 172.86621094 C417.39636006 180.42917175 414.31975849 188.02588077 411.25576782 195.62924194 C409.77253131 199.30590675 408.28015072 202.97885806 406.7890625 206.65234375 C402.4339613 217.38969053 398.09199262 228.1323473 393.75 238.875 C393.35218323 239.85922943 392.95436646 240.84345886 392.54449463 241.85751343 C389.69606609 248.9049024 386.84799254 255.95243482 384 263 C380.75024152 271.04176429 377.50033145 279.08346727 374.25 287.125 C373.85204224 288.10958191 373.45408447 289.09416382 373.04406738 290.10858154 C367.57044799 303.65000951 362.08841601 317.18799524 356.59838867 330.72277832 C351.3064751 343.76983634 346.02607669 356.82153017 340.75 369.875 C340.3523645 370.85877625 339.954729 371.84255249 339.54504395 372.85614014 C336.69643194 379.90398673 333.84817727 386.95197771 331 394 C312.51615542 439.73962096 312.51615542 439.73962096 304.58972168 459.30584717 C303.95939651 460.86195993 303.32926132 462.41814965 302.69934082 463.97442627 C299.86539627 470.97528738 297.02418512 477.97321956 294.1484375 484.95703125 C293.75575684 485.91198486 293.36307617 486.86693848 292.95849609 487.85083008 C292 490 292 490 291 491 C289.2507128 491.09365006 287.49763746 491.11744438 285.74584961 491.11352539 C284.62476303 491.11344986 283.50367645 491.11337433 282.34861755 491.11329651 C280.51896202 491.10555458 280.51896202 491.10555458 278.65234375 491.09765625 C277.41078018 491.0962413 276.16921661 491.09482635 274.89002991 491.09336853 C271.58394509 491.08870591 268.27792854 491.07971497 264.97186279 491.06866455 C261.6003885 491.05844827 258.22890717 491.05387045 254.85742188 491.04882812 C248.23826225 491.03777395 241.61913507 491.02101736 235 491 C227.35805697 472.87952983 219.81311014 454.72203959 212.36279297 436.52197266 C207.5406427 424.74406739 202.69082527 412.97785288 197.82647705 401.21731567 C190.80949978 384.25234282 183.82943081 367.27286003 176.88781738 350.2769165 C171.08309782 336.06677717 165.24084232 321.87251283 159.375 307.6875 C153.50277543 293.48653308 147.64197216 279.28107605 141.8125 265.0625 C141.4866391 264.26775269 141.1607782 263.47300537 140.82504272 262.6541748 C138.22605946 256.31490828 135.62854906 249.97503854 133.03112793 243.63513184 C130.75062703 238.06896403 128.46946538 232.50306757 126.1875 226.9375 C125.86372375 226.14775787 125.53994751 225.35801575 125.20635986 224.54434204 C120.37979192 212.77395728 115.5310705 201.01283606 110.67016602 189.2565918 C109.02536871 185.27843328 107.38265151 181.2994268 105.74194336 177.31958008 C104.95171074 175.40313669 104.16142847 173.48671378 103.37109375 171.5703125 C102.99025131 170.64681503 102.60940887 169.72331757 102.21702576 168.77183533 C100.03274393 163.48156432 97.82581011 158.20160442 95.59765625 152.9296875 C88.55088893 136.16191745 83.29765959 119.26535839 78.90405273 101.63354492 C78.72019768 100.8968734 78.53634262 100.16020187 78.3469162 99.40120697 C77.89764417 97.60087948 77.44878014 95.80045017 77 94 C77.05939691 94.98614086 77.11879383 95.97228171 77.17999065 96.98830563 C78.58258248 120.60931843 79.29293651 144.13260921 79.23213124 167.79294956 C79.22325219 172.15835709 79.22643359 176.52376136 79.22793579 180.88917542 C79.22896968 188.4006693 79.22285309 195.91212765 79.21146011 203.42361259 C79.19500007 214.28310472 79.18997652 225.14258019 79.18748413 236.00208343 C79.1831386 253.6334787 79.16991624 271.26485515 79.15087891 288.89624023 C79.13243775 305.99357003 79.11832192 323.09089465 79.10986328 340.18823242 C79.10933783 341.24733062 79.10881239 342.30642882 79.10827102 343.39762091 C79.10566039 348.71236364 79.1031331 354.02710641 79.10064721 359.34184921 C79.08001289 403.2279162 79.04319722 447.11394828 79 491 C52.6 491 26.2 491 -1 491 C-1.01690056 444.40847849 -1.03303243 397.81695705 -1.04234314 351.22543335 C-1.0424812 350.53634781 -1.04261925 349.84726226 -1.04276149 349.13729534 C-1.0457541 334.16319709 -1.04852432 319.18909882 -1.05106533 304.21500049 C-1.05231271 296.8721748 -1.05360926 289.52934912 -1.05493164 282.18652344 C-1.0550624 281.45580688 -1.05519316 280.72509032 -1.05532788 279.97223083 C-1.05959258 256.26882431 -1.06710638 232.56542016 -1.07629722 208.86201507 C-1.08572143 184.51263584 -1.0918835 160.16325792 -1.09391499 135.81387689 C-1.09420316 132.37816987 -1.0945288 128.94246285 -1.09487724 125.50675583 C-1.09494467 124.83053009 -1.09501209 124.15430435 -1.09508156 123.45758692 C-1.0962653 112.55289704 -1.1009088 101.64821122 -1.10683203 90.743523 C-1.1127072 79.79233967 -1.1148898 68.84115978 -1.11350138 57.88997485 C-1.11285794 51.95164102 -1.11387616 46.01331914 -1.11920547 40.07498741 C-1.12404152 34.64696921 -1.12433728 29.2189711 -1.12089889 23.79095201 C-1.12047341 21.81919286 -1.12176741 19.84743249 -1.12488318 17.87567575 C-1.12885105 15.21142197 -1.1267609 12.54724234 -1.12304783 9.88298988 C-1.12567484 9.10371899 -1.12830186 8.3244481 -1.13100848 7.52156293 C-1.1141458 2.2282916 -1.1141458 2.2282916 0 0 Z " fill="#737473" transform="translate(1071,834)"/>
<path d="M0 0 C0.36076355 2.89797974 0.36076355 2.89797974 0.34057617 6.65283203 C0.34101425 7.33587402 0.34145233 8.01891602 0.34190369 8.72265625 C0.33981044 10.98466388 0.31645543 13.24593406 0.29296875 15.5078125 C0.28737467 17.07436722 0.28310369 18.64092718 0.28010559 20.20748901 C0.26864192 24.33402962 0.23916195 28.46025429 0.20599365 32.58666992 C0.17532537 36.79601772 0.16160721 41.00541648 0.14648438 45.21484375 C0.11429344 53.47670761 0.06307904 61.73831453 0 70 C-0.99 70.495 -0.99 70.495 -2 71 C-3.8208261 70.32386262 -5.60821786 69.55687688 -7.375 68.75 C-25.00388764 61.14040821 -44.59856379 59.19255237 -62.828125 66.06640625 C-74.17305184 71.3386652 -81.1409725 79.61808765 -86 91 C-94.45702742 114.78288117 -91.51376457 143.17446375 -92 167 C-51.41 167 -10.82 167 31 167 C31 140.93 31 114.86 31 88 C42.0409263 84.31969123 53.06045647 80.67730306 64.1796875 77.2578125 C65.5344407 76.84042499 66.88918704 76.42301521 68.243927 76.00558472 C71.03794395 75.14535625 73.83252031 74.28697344 76.62744141 73.4296875 C80.20420224 72.33216908 83.77867363 71.22737325 87.352705 70.1210041 C90.1293372 69.26279912 92.90749245 68.40961224 95.68610001 67.557827 C97.00634325 67.15219237 98.32602274 66.74471792 99.64510727 66.33533096 C101.47515156 65.7679048 103.30759536 65.20823493 105.14013672 64.64892578 C106.17838593 64.32949005 107.21663513 64.01005432 108.28634644 63.68093872 C111 63 111 63 115 63 C115.33 97.32 115.66 131.64 116 167 C143.06 167 170.12 167 198 167 C198 189.44 198 211.88 198 235 C170.61 235 143.22 235 115 235 C115.09068941 266.60162864 115.09068941 266.60162864 115.20898438 298.203125 C115.26338055 311.09829409 115.31479741 323.99342418 115.34643555 336.88867188 C115.369496 346.28206036 115.40298311 355.67534565 115.44870156 365.06865215 C115.47252575 370.03680103 115.49132502 375.00484839 115.49761391 379.97305298 C115.50371403 384.66149304 115.52388899 389.34967373 115.55427551 394.03801727 C115.56297753 395.74703919 115.56679485 397.45609511 115.56500816 399.16513824 C115.55281072 416.23558204 116.35679625 435.00989159 128.7265625 448.0234375 C134.44846446 452.99814951 141.55255033 455.83918911 149 457 C149.93199219 457.14566406 150.86398437 457.29132813 151.82421875 457.44140625 C168.55336521 459.39622656 183.53685232 454.03508204 198 446 C198 468.77 198 491.54 198 515 C191.04359693 518.47820154 185.59546988 520.99638571 178.25 522.625 C177.35240967 522.82955811 176.45481934 523.03411621 175.5300293 523.24487305 C144.118708 530.14495776 110.65904308 531.10360091 81 517 C80.08863281 516.58234375 79.17726563 516.1646875 78.23828125 515.734375 C58.83445754 506.10166366 45.28195699 487.3255774 38.34765625 467.25 C29.43867278 439.95010435 30.71662491 411.15304774 30.79721212 382.80666399 C30.80985737 377.59640565 30.8109007 372.38614412 30.81326294 367.1758728 C30.8194377 357.34511121 30.83579334 347.514395 30.85596192 337.68365324 C30.88266488 324.37419674 30.89332597 311.06472752 30.90496635 297.75525093 C30.9236776 276.83680008 30.96354966 255.9184449 31 235 C-9.59 235 -50.18 235 -92 235 C-92 328.72 -92 422.44 -92 519 C-119.72 519 -147.44 519 -176 519 C-176 425.28 -176 331.56 -176 235 C-195.14 235 -214.28 235 -234 235 C-234 212.56 -234 190.12 -234 167 C-214.86 167 -195.72 167 -176 167 C-176.11781232 148.90293375 -176.11781232 148.90293375 -176.27026367 130.80615234 C-176.49665953 90.72580186 -168.41582566 56.4429037 -140 27 C-139.05640625 25.9790625 -139.05640625 25.9790625 -138.09375 24.9375 C-109.80755403 -4.9498014 -36.1668231 -24.1112154 0 0 Z " fill="#737473" transform="translate(3635,806)"/>
<path d="M0 0 C0.83965302 -0.00067474 1.67930603 -0.00134949 2.54440308 -0.00204468 C16.1213201 0.01522814 29.32720178 0.64810945 42.6875 3.25 C43.99678467 3.49943359 43.99678467 3.49943359 45.33251953 3.75390625 C86.93040476 11.96551584 122.47908768 34.18943728 146.24121094 69.3972168 C163.26070326 95.33325194 171.35651679 124.66098973 174.6875 155.25 C174.82027344 156.46816406 174.95304687 157.68632813 175.08984375 158.94140625 C179.5766899 210.01769602 169.49936683 265.55009916 136.6875 306.25 C133.30330287 310.23335152 129.73770112 314.03300017 126.09863281 317.78320312 C124.8219374 319.11025953 123.57690317 320.46759786 122.3359375 321.828125 C114.76633191 329.891966 105.80276144 336.06986996 96.6875 342.25 C95.70265625 342.9203125 94.7178125 343.590625 93.703125 344.28125 C64.53856837 362.57381215 29.50602312 368.42026727 -4.3125 369.25 C-5.01681152 369.27191406 -5.72112305 369.29382812 -6.44677734 369.31640625 C-50.18776554 370.59631812 -94.80820054 357.9862046 -128.3125 329.25 C-129.16787354 328.52683594 -129.16787354 328.52683594 -130.04052734 327.7890625 C-137.3043232 321.59655358 -143.5098876 314.82504674 -149.3125 307.25 C-150.06273438 306.30382813 -150.81296875 305.35765625 -151.5859375 304.3828125 C-174.27062011 275.19467139 -185.31130219 236.64958179 -185.515625 199.9296875 C-185.52268463 199.07645401 -185.52974426 198.22322052 -185.53701782 197.34413147 C-185.88611276 142.72627557 -175.29306081 89.99959923 -135.74853516 49.69433594 C-135.27464355 49.21770508 -134.80075195 48.74107422 -134.3125 48.25 C-133.81669434 47.75016602 -133.32088867 47.25033203 -132.81005859 46.73535156 C-97.76634097 11.87950629 -48.00179569 0.03483397 0 0 Z M-71.7265625 95.81640625 C-86.04387872 112.71674344 -93.45299038 131.67297621 -97.3125 153.25 C-97.65087891 155.0134375 -97.65087891 155.0134375 -97.99609375 156.8125 C-103.55038525 191.74707825 -99.93996303 232.80233205 -80.1875 262.9375 C-66.07553771 282.2158756 -46.92553301 294.59008632 -23.30859375 298.71875 C2.89605386 302.43887993 31.28618319 300.10333815 53.0625 283.77734375 C76.36073944 265.46679248 85.03021406 236.8737704 88.47955322 208.46998596 C88.85254679 204.48800322 88.87090849 200.508727 88.890625 196.51171875 C88.89632507 195.59147415 88.90202515 194.67122955 88.90789795 193.72309875 C88.91730222 191.77919648 88.92386363 189.83527859 88.92773438 187.89135742 C88.93734656 184.98391059 88.96837498 182.07720052 89 179.16992188 C89.17801316 147.61876847 82.26447443 116.17484863 60.078125 92.5546875 C40.95510716 74.1190984 16.41808678 68.74284502 -9.37109375 69.0390625 C-32.94315789 69.64800436 -55.39047231 78.44939775 -71.7265625 95.81640625 Z " fill="#737473" transform="translate(3218.3125,964.75)"/>
<path d="M0 0 C1.30928467 0.24943359 1.30928467 0.24943359 2.64501953 0.50390625 C45.24150255 8.91264353 80.6757991 32.02471127 105 68 C127.22956414 101.88815958 134.75911093 146.07227276 133 186 C132.9383667 187.39992188 132.9383667 187.39992188 132.87548828 188.828125 C130.29658932 240.7686331 113.13503865 287.6011198 74.71435547 323.44970703 C36.78499179 357.74925977 -15.80032177 368.29649264 -65.55908203 365.87548828 C-93.22732336 364.2300086 -120.71446562 357.5297033 -145 344 C-145.63631348 343.65211426 -146.27262695 343.30422852 -146.92822266 342.94580078 C-155.97853335 337.95591209 -163.86875991 332.20835235 -171.54492188 325.29931641 C-172.8795623 324.1075452 -174.24321753 322.94847619 -175.609375 321.79296875 C-208.46312277 293.59524575 -224.62120765 249.23203538 -228 207 C-228.14580521 203.66229985 -228.1860444 200.32889883 -228.203125 196.98828125 C-228.21013931 196.06540817 -228.21715363 195.1425351 -228.22438049 194.19169617 C-228.24177954 191.23191387 -228.24823206 188.27233155 -228.25 185.3125 C-228.25067474 184.3021167 -228.25134949 183.2917334 -228.25204468 182.25073242 C-228.23649882 167.6207755 -227.95100085 153.38073095 -225 139 C-224.82839355 138.13197754 -224.65678711 137.26395508 -224.47998047 136.36962891 C-220.60441662 117.26195619 -214.42283958 99.08303828 -205 82 C-204.66274902 81.37818848 -204.32549805 80.75637695 -203.97802734 80.11572266 C-188.91654868 52.63048989 -165.78273024 31.18943333 -138 17 C-137.36707031 16.67660645 -136.73414062 16.35321289 -136.08203125 16.02001953 C-95.6205636 -4.34628107 -44.23141302 -8.61397654 0 0 Z M-114 92 C-117.32635936 95.80946148 -120.22022688 99.7784585 -123 104 C-123.62519531 104.94488281 -124.25039062 105.88976563 -124.89453125 106.86328125 C-138.72942496 129.13776154 -142.44604906 155.91728883 -142.3125 181.6875 C-142.31067719 182.42468262 -142.30885437 183.16186523 -142.30697632 183.92138672 C-142.25640102 196.13326246 -141.59057385 208.03644437 -139 220 C-138.83371094 220.77150391 -138.66742187 221.54300781 -138.49609375 222.33789062 C-134.7070505 239.1079154 -127.95933779 253.72560829 -117 267 C-116.56171875 267.58910156 -116.1234375 268.17820312 -115.671875 268.78515625 C-105.55787293 282.1399125 -88.66923997 289.61475195 -73 294 C-72.18660156 294.23460937 -71.37320313 294.46921875 -70.53515625 294.7109375 C-47.02156608 300.41370629 -17.79881635 297.73535939 3.10595703 285.21313477 C24.2745373 271.87146357 36.27953234 251.60909238 42.00390625 227.5703125 C42.34039864 226.04785415 42.67249617 224.5244172 43 223 C43.24339111 221.93410645 43.24339111 221.93410645 43.49169922 220.84667969 C46.36246359 207.6986381 46.31187448 194.33011713 46.375 180.9375 C46.38691879 179.61214233 46.38691879 179.61214233 46.39907837 178.26000977 C46.51223424 161.85145785 45.28227328 145.34695771 40.25 129.625 C39.86593994 128.39342163 39.86593994 128.39342163 39.47412109 127.13696289 C35.59320732 115.15853072 29.74145699 104.92926006 22 95 C21.20335938 93.85917969 21.20335938 93.85917969 20.390625 92.6953125 C19.93171875 92.13585938 19.4728125 91.57640625 19 91 C18.34 91 17.68 91 17 91 C17 90.34 17 89.68 17 89 C-1.07140445 71.261709 -25.31410426 65.44048413 -49.88256836 65.64892578 C-74.4037259 66.26362041 -96.40898654 74.54548325 -114 92 Z " fill="#737473" transform="translate(2592,968)"/>
<path d="M0 0 C0.76014404 0.17233154 1.52028809 0.34466309 2.3034668 0.5222168 C10.45425817 2.54219933 17.74972615 5.62489731 25.75 8.625 C25.75 34.035 25.75 59.445 25.75 85.625 C22.13440517 84.17876207 19.55464864 82.9735908 16.375 80.9375 C-10.27225882 64.75175761 -45.53709128 55.71659958 -76.4453125 62.5859375 C-86.24871636 65.26325313 -95.10569089 69.84918173 -100.5234375 78.70703125 C-105.46143007 88.1452511 -105.48099884 98.13676205 -102.75 108.375 C-97.56864098 123.1890574 -83.88901289 129.45067932 -70.63549805 135.94946289 C-62.58140154 139.80848821 -54.3787167 143.28072969 -46.125 146.6875 C-23.27774031 156.1347233 -1.54816606 166.62791383 16.75 183.625 C17.40613281 184.18960937 18.06226562 184.75421875 18.73828125 185.3359375 C33.8612738 199.03354455 42.71236932 220.96060332 43.96142578 241.02050781 C45.13226878 272.60389268 38.87480002 298.52700633 17.2890625 322.33984375 C-11.30852258 352.23731906 -52.56311045 361.96993725 -92.70092773 362.97851562 C-117.65194202 363.17898027 -142.47225731 358.30349709 -166.4375 351.6875 C-167.63777832 351.3630188 -167.63777832 351.3630188 -168.86230469 351.03198242 C-176.18539331 348.9158363 -182.09729053 345.92625052 -189.25 342.625 C-189.25 315.895 -189.25 289.165 -189.25 261.625 C-184.84407042 264.14267405 -180.58061623 266.66045564 -176.3125 269.375 C-144.24636252 289.26762137 -104.96558529 300.79852879 -67.39453125 292.8046875 C-58.49329441 290.32110676 -50.05661055 286.95208725 -44.75 279.0625 C-39.51270422 269.12354096 -39.37148187 258.31862533 -42.25 247.625 C-47.87637425 231.81756758 -67.09376883 224.50390013 -81.1875 217.75 C-88.74365428 214.17033391 -96.3816969 210.80221159 -104.0625 207.5 C-113.30429314 203.52396907 -122.35821231 199.33241701 -131.25 194.625 C-131.92643555 194.27083008 -132.60287109 193.91666016 -133.29980469 193.55175781 C-142.45135416 188.72685993 -150.44861164 183.49074888 -158.25 176.625 C-158.86875 176.14933594 -159.4875 175.67367188 -160.125 175.18359375 C-178.10585292 161.24010827 -186.49159894 137.34412455 -189.25 115.625 C-189.53021521 111.37022278 -189.58482675 107.13813394 -189.5625 102.875 C-189.55404053 101.16884521 -189.55404053 101.16884521 -189.54541016 99.42822266 C-189.15036105 71.90386097 -178.77092543 48.81170973 -159.25 29.625 C-158.49976562 28.87605469 -157.74953125 28.12710938 -156.9765625 27.35546875 C-115.84526263 -11.40581198 -51.66268382 -11.79115728 0 0 Z " fill="#737473" transform="translate(2953.25,971.375)"/>
<path d="M0 0 C0 26.73 0 53.46 0 81 C-4.64094893 78.34802918 -8.96775371 75.71662099 -13.375 72.75 C-25.90398965 64.56960676 -39.49793181 58.66099177 -54 55 C-54.64839844 54.83628906 -55.29679687 54.67257812 -55.96484375 54.50390625 C-84.40108831 47.69046944 -115.19526743 51.99874599 -140.31787109 66.93408203 C-144.51108781 69.59120601 -148.25500106 72.75887364 -152 76 C-152.82757812 76.63679688 -153.65515625 77.27359375 -154.5078125 77.9296875 C-173.75960853 93.92255881 -183.19140804 120.08419938 -187 144 C-187.19207031 145.17433594 -187.38414063 146.34867188 -187.58203125 147.55859375 C-188.3686471 154.26917806 -188.24445348 161.06426697 -188.25 167.8125 C-188.25067474 168.54854462 -188.25134949 169.28458923 -188.25204468 170.04293823 C-188.23526155 181.57608126 -187.76039931 192.75735007 -185 204 C-184.83371094 204.68223633 -184.66742187 205.36447266 -184.49609375 206.06738281 C-178.51522275 229.49246088 -164.89959978 252.16275389 -144.10791016 265.18505859 C-134.20928991 271.05647446 -124.13159942 275.15098373 -113 278 C-112.09507812 278.23332031 -111.19015625 278.46664063 -110.2578125 278.70703125 C-76.12136535 286.09794426 -41.28137009 275.5577695 -12 258 C-9.19635768 256.14228816 -6.46691418 254.24341193 -3.78515625 252.21484375 C-2 251 -2 251 0 251 C0 276.08 0 301.16 0 327 C-31.22362039 342.61181019 -61.11907493 350.0529069 -96 351 C-96.6997998 351.02723145 -97.39959961 351.05446289 -98.12060547 351.08251953 C-141.94603163 352.75717533 -185.86616839 338.42012424 -218.9921875 309.61328125 C-220.99823424 307.87036531 -223.03671989 306.16410384 -225.10546875 304.49609375 C-227.90793742 302.07939 -230.13539606 299.63924605 -232.4375 296.75 C-233.2109375 295.77933594 -233.984375 294.80867188 -234.78125 293.80859375 C-235.5134375 292.88175781 -236.245625 291.95492188 -237 291 C-237.88171875 289.93458984 -237.88171875 289.93458984 -238.78125 288.84765625 C-271.03016646 249.22103957 -279.41361682 196.67012501 -274.43359375 147.05859375 C-269.18076498 100.06993846 -249.55142707 53.52320851 -212.3359375 22.89453125 C-154.81213904 -22.55466193 -66.08746879 -33.0437344 0 0 Z " fill="#737473" transform="translate(2094,983)"/>
<path d="M0 0 C1.75439163 1.75439163 1.11982963 4.05497456 1.12442017 6.39170837 C1.12082489 7.1642244 1.11722961 7.93674042 1.11352539 8.73266602 C1.11367142 9.5423584 1.11381744 10.35205078 1.1139679 11.1862793 C1.11326854 13.87551508 1.1054751 16.56468249 1.09765625 19.25390625 C1.09579215 21.11335716 1.09436821 22.97280856 1.09336853 24.83226013 C1.08954271 29.73629096 1.07971188 34.64029236 1.06866455 39.54431152 C1.05845181 44.54451092 1.05387121 49.54471506 1.04882812 54.54492188 C1.03808967 64.36329421 1.02101248 74.18164466 1 84 C-1.44219645 83.03930526 -3.82311141 82.09132835 -6.15625 80.88671875 C-24.26691944 71.62009289 -46.93946763 68.31567806 -66.5625 74.0390625 C-86.94229963 81.4892251 -99.59723511 95.4916138 -108.85961914 114.61474609 C-122.23280612 143.86928016 -120.31977088 177.0925003 -120.40471697 208.48701358 C-120.42054249 213.58252566 -120.44726866 218.67798146 -120.4727478 223.77345276 C-120.51919682 233.38455881 -120.55610279 242.99567586 -120.58942068 252.60683542 C-120.63510201 265.6211753 -120.6958488 278.63544479 -120.75566864 291.64972591 C-120.84927667 312.09978166 -120.92303602 332.54985913 -121 353 C-148.39 353 -175.78 353 -204 353 C-204 236.84 -204 120.68 -204 1 C-176.61 1 -149.22 1 -121 1 C-120.67 20.47 -120.34 39.94 -120 60 C-117.03 53.73 -114.06 47.46 -111 41 C-107.75152303 36.12728454 -104.6048183 31.56367569 -101 27 C-100.44054688 26.2575 -99.88109375 25.515 -99.3046875 24.75 C-85.72292596 7.82398562 -64.33740514 -2.37691517 -43.07128906 -4.8190918 C-28.6233588 -6.0809867 -13.58854041 -5.29722762 0 0 Z " fill="#737473" transform="translate(2359,972)"/>
<path d="M0 0 C27.39 0 54.78 0 83 0 C84.75283772 1.75283772 84.12547732 4.20577579 84.12584114 6.58633423 C84.12844889 7.80689703 84.13105664 9.02745983 84.13374341 10.28500938 C84.13158088 11.65696604 84.12932421 13.02892255 84.12698364 14.40087891 C84.12813449 15.8447098 84.12972177 17.2885404 84.13171089 18.73237038 C84.13590921 22.71873912 84.13381127 26.70508412 84.13072467 30.69145298 C84.12847282 34.98324817 84.1319491 39.27503913 84.13470459 43.5668335 C84.1391636 51.98189591 84.13818524 60.39694943 84.13529195 68.8120122 C84.13303843 75.64788925 84.13272517 82.4837638 84.13381577 89.31964111 C84.133969 90.29059333 84.13412223 91.26154556 84.13428011 92.26192057 C84.13459982 94.23406331 84.13492403 96.20620604 84.1352527 98.17834878 C84.13810787 116.69423319 84.13481988 135.21011266 84.12945233 153.72599626 C84.12498426 169.63178644 84.12576018 185.53756932 84.13037109 201.44335938 C84.1357162 219.89058998 84.13783318 238.33781626 84.13475883 256.78504753 C84.13444026 258.75015132 84.13412589 260.7152551 84.13381577 262.68035889 C84.13358435 264.13086323 84.13358435 264.13086323 84.13334826 265.61067069 C84.13248291 272.44253558 84.13394637 279.27439774 84.13629532 286.10626221 C84.13909281 294.42599123 84.13835614 302.74571081 84.13301457 311.06543875 C84.13037686 315.31458398 84.12937366 319.56371345 84.13266373 323.81285858 C84.13562527 327.69630295 84.13403627 331.5797168 84.12868617 335.46315837 C84.12756138 336.87430756 84.12815454 338.28545929 84.13056196 339.69660687 C84.13356577 341.60229146 84.12991265 343.50798317 84.12584114 345.41366577 C84.12567879 346.4759609 84.12551644 347.53825603 84.12534916 348.63274193 C84 351 84 351 83 352 C55.61 352 28.22 352 0 352 C0 235.84 0 119.68 0 0 Z " fill="#737473" transform="translate(1679,973)"/>
<path d="M0 0 C9.65647077 8.27072345 17.30040731 18.22243834 18.62158203 31.22314453 C19.55654161 45.45270178 17.6303003 56.98129425 8.66015625 68.48828125 C0.01555764 78.19292563 -11.64069343 84.87343399 -24.70263672 86.24853516 C-41.05124128 87.13112695 -54.73853703 83.9190866 -67.625 73.37109375 C-76.13475082 65.49307115 -81.24447948 55.12514162 -81.91796875 43.59375 C-82.49526608 27.27569681 -78.52598077 15.53585161 -67.4140625 3.33984375 C-49.23936342 -13.82064222 -19.82919571 -15.0356514 0 0 Z " fill="#737473" transform="translate(1753.6015625,833.97265625)"/>
<path d="" fill="#737F66" transform="translate(0,0)"/>
</svg>
